[   2s] CDP targets: 1
[   2s]   page: file:///C:/Users/runneradmin/.comfy-test-cache/desktop/ComfyUI/resources/desktop-ui/index.html#/not-supported | ComfyUI
[   3s] Main page: file:///C:/Users/runneradmin/.comfy-test-cache/desktop/ComfyUI/resources/desktop-ui/index.html#/not-supported | ComfyUI
[   3s] Buttons: ['Learn More', 'Report Issue', 'Continue']
[   3s]   wizard: COMFY_TEST_GPU=0 platform=win32 preferred=['CPU']
[   6s]   clicked [BTN|Continue]
[   9s]   url: file:///C:/Users/runneradmin/.comfy-test-cache/desktop/ComfyUI/resources/desktop-ui/index.html#/not-supported -> file:///C:/Users/runneradmin/.comfy-test-cache/desktop/ComfyUI/resources/desktop-ui/index.html#/install
[  10s]   clicked [TILE|CPU]
[  14s]   clicked [BTN|Next]
[  21s]   clicked [BTN|Next]
[  25s]   clicked [BTN|Install]
[  28s]   url: file:///C:/Users/runneradmin/.comfy-test-cache/desktop/ComfyUI/resources/desktop-ui/index.html#/install -> file:///C:/Users/runneradmin/.comfy-test-cache/desktop/ComfyUI/resources/desktop-ui/index.html#/server-start
[ 175s]   /system_stats up after 171s
[ 175s]   app: waiting for backend stability (continuous /system_stats up for 30s)
[ 175s]   app: /system_stats up; awaiting 30s of stability
[ 206s]   app: backend stable for 30s; proceeding
[ 206s]   capturing canvas load...
[ 214s]   post: waiting for Cloud upsell
[ 247s]   post: Cloud upsell not found, skipping
[ 247s]   post: pressed Escape (Cloud upsell fallback)
[ 250s]   post: waiting for Close Templates
[ 261s]   post: Close Templates not found, skipping
[ 261s]   post: pressed Escape (Close Templates fallback)
[ 264s]   post: waiting for Extensions
[ 264s]   post: clicked Extensions via [button[aria-label="Extensions"]:visible]
[ 267s]   ext: node meta = display='SAM3' publisher='pznodes' version='0.1.15'
[ 270s]   ext: searching "SAM3"
[ 273s]   ext: clicking SAM3 by pznodes tile
[ 277s]   ext: scrolling to + opening version selector
[ 280s]   ext: selected 0.1.15
[ 281s]   ext: clicking right-panel Install
[ 283s]   ext: clicked Install (last of 8 visible)
[ 291s]   ext: waiting for "Apply Changes" toast
[ 292s]   ext: clicked Apply Changes
[ 297s]   app: Apply Changes already triggered in-app restart, skipping pkill
[ 302s]   app: relaunching with CDP
[ 302s]   app: waiting for CDP
[ 303s]   app: CDP up after 1s
[ 303s]   app: reconnecting Playwright
[ 304s]   app: attached to http://127.0.0.1:8000/
[ 484s]   app: server ready after 44s
[ 484s]   app: waiting for main canvas (window.app.graph)
[ 484s]   app: canvas ready after 1s (http://127.0.0.1:8000/)
[ 490s]   app: forcing renderer reload to refresh node-pack manifest
[ 493s]   app: canvas re-ready after reload in 3s
[ 496s]   ext: closing Nodes Manager dialog
[ 496s]   ext: dismissing What's New popup
[ 497s]   ext: closed What's New popup
[ 499s]   ext: dismissing Node Pack Issues modal (if present)
[ 499s]   ext: Node Pack Issues modal not present
[ 499s]   ext: opening Templates sidebar
[ 500s]   ext: clicked Templates
[ 504s]   ext: locating "comfyui-sam3" section in Templates panel
[ 506s]   ext: clicked comfyui-sam3 section
[ 508s]   ext: fetching comfy-test.toml from https://raw.githubusercontent.com/PozzettiAndrea/ComfyUI-SAM3/main/comfy-test.toml
[ 508s]   ext: cpu spec = exclude ['video_point_prompt']
[ 508s]   ext: picking first matching comfyui-sam3 template
[ 508s]   ext: 5 visible cards
[ 510s]   ext: clicked template image_seg_point
[ 515s]   ext: installing WS execution listener
[ 515s]   ext: clicking Run
[ 516s]   ext: clicked Run
[ 516s]   ext: waiting for execution_success / execution_error
[ 611s]   ext: WS events=216 elapsed=95s
[ 611s]     ws: {'type': 'progress_state', 'ts': 1778381792830}
[ 611s]     ws: {'type': 'progress_state', 'ts': 1778381792833}
[ 611s]     ws: {'type': 'executing', 'ts': 1778381792841}
[ 611s]     ws: {'type': 'progress_state', 'ts': 1778381860429}
[ 611s]     ws: {'type': 'progress_state', 'ts': 1778381860431}
[ 611s]     ws: {'type': 'executing', 'ts': 1778381860431}
[ 611s]     ws: {'type': 'executed', 'ts': 1778381860569}
[ 611s]     ws: {'type': 'progress_state', 'ts': 1778381860572}
[ 611s]     ws: {'type': 'progress_state', 'ts': 1778381860574}
[ 611s]     ws: {'type': 'executing', 'ts': 1778381860574}
[ 611s]     ws: {'type': 'executed', 'ts': 1778381860653}
[ 611s]     ws: {'type': 'progress_state', 'ts': 1778381860657}
[ 611s]     ws: {'type': 'execution_success', 'ts': 1778381860675}
[ 611s]     ws: {'type': 'status', 'ts': 1778381860692}
[ 611s]     ws: {'type': 'executing', 'ts': 1778381860692}
[ 611s]   ext: execution_success after 95s
[ 616s]   ext: fetching comfy-test.toml from https://raw.githubusercontent.com/PozzettiAndrea/ComfyUI-SAM3/main/comfy-test.toml
[ 616s]   ext: cpu spec = exclude ['video_point_prompt']
[ 616s]   loop: workflows/ from $COMFY_TEST_WORKFLOWS -> ['image_seg_point', 'image_seg_text', 'scene_seg', 'scene_seg_interactive', 'video_point_prompt']
[ 616s]   loop: spec=exclude items=['video_point_prompt'] -> 4 workflow(s) ['image_seg_point', 'image_seg_text', 'scene_seg', 'scene_seg_interactive']
[ 616s]   loop: matching=4 first_ran='image_seg_point' remaining=3 -> ['image_seg_text', 'scene_seg', 'scene_seg_interactive']
[ 616s]   loop: full restart for workflow 2/4 (image_seg_text)
[ 616s]   loop: closing current browser
[ 616s]   loop: killing ComfyUI process
[ 622s]   loop: launching ComfyUI with --remote-debugging-port=0
[ 622s]   loop: waiting for DevToolsActivePort at C:\Users\runneradmin\AppData\Roaming\ComfyUI\DevToolsActivePort
[ 625s]   loop: DevToolsActivePort -> 61485 after 4s
[ 625s]   loop: reconnecting Playwright on port 61485
[ 627s]   loop: attached to file:///C:/Users/runneradmin/.comfy-test-cache/desktop/ComfyUI/resources/desktop-ui/index.html#desktop-start
[ 627s]   loop: server ready after 1s
[ 653s]   loop: canvas ready after 22s
[ 653s]   loop: forcing renderer reload
[ 655s]   loop: canvas ready after 2s
[ 658s]   ext: closing Nodes Manager dialog
[ 658s]   ext: dismissing What's New popup
[ 658s]   ext: What's New popup not present
[ 658s]   ext: dismissing Node Pack Issues modal (if present)
[ 658s]   ext: Node Pack Issues modal not present
[ 658s]   ext: opening Templates sidebar
[ 659s]   ext: clicked Templates
[ 663s]   ext: locating "comfyui-sam3" section in Templates panel
[ 665s]   ext: clicked comfyui-sam3 section
[ 667s]   ext: clicking template image_seg_text
[ 669s]   ext: clicked template image_seg_text
[ 674s]   ext: installing WS execution listener
[ 674s]   ext: clicking Run
[ 675s]   ext: clicked Run
[ 675s]   ext: waiting for execution_success / execution_error
[ 755s]   ext: WS events=24 elapsed=79s
[ 755s]     ws: {'type': 'progress_state', 'ts': 1778381930183}
[ 755s]     ws: {'type': 'progress_state', 'ts': 1778381930186}
[ 755s]     ws: {'type': 'executing', 'ts': 1778381930186}
[ 755s]     ws: {'type': 'progress_state', 'ts': 1778382004053}
[ 755s]     ws: {'type': 'progress_state', 'ts': 1778382004056}
[ 755s]     ws: {'type': 'executing', 'ts': 1778382004056}
[ 755s]     ws: {'type': 'executed', 'ts': 1778382004272}
[ 755s]     ws: {'type': 'progress_state', 'ts': 1778382004286}
[ 755s]     ws: {'type': 'progress_state', 'ts': 1778382004288}
[ 755s]     ws: {'type': 'executing', 'ts': 1778382004288}
[ 755s]     ws: {'type': 'executed', 'ts': 1778382004342}
[ 755s]     ws: {'type': 'progress_state', 'ts': 1778382004345}
[ 755s]     ws: {'type': 'execution_success', 'ts': 1778382004361}
[ 755s]     ws: {'type': 'status', 'ts': 1778382004362}
[ 755s]     ws: {'type': 'executing', 'ts': 1778382004363}
[ 755s]   ext: execution_success after 79s
[ 760s]   loop: full restart for workflow 3/4 (scene_seg)
[ 760s]   loop: closing current browser
[ 760s]   loop: killing ComfyUI process
[ 765s]   loop: launching ComfyUI with --remote-debugging-port=0
[ 765s]   loop: waiting for DevToolsActivePort at C:\Users\runneradmin\AppData\Roaming\ComfyUI\DevToolsActivePort
[ 767s]   loop: DevToolsActivePort -> 61737 after 3s
[ 767s]   loop: reconnecting Playwright on port 61737
[ 768s]   loop: attached to file:///C:/Users/runneradmin/.comfy-test-cache/desktop/ComfyUI/resources/desktop-ui/index.html#/desktop-start
[ 768s]   loop: server ready after 1s
[ 797s]   loop: canvas ready after 23s
[ 797s]   loop: forcing renderer reload
[ 799s]   loop: canvas ready after 2s
[ 802s]   ext: closing Nodes Manager dialog
[ 802s]   ext: dismissing What's New popup
[ 802s]   ext: What's New popup not present
[ 802s]   ext: dismissing Node Pack Issues modal (if present)
[ 802s]   ext: Node Pack Issues modal not present
[ 802s]   ext: opening Templates sidebar
[ 803s]   ext: clicked Templates
[ 807s]   ext: locating "comfyui-sam3" section in Templates panel
[ 809s]   ext: clicked comfyui-sam3 section
[ 811s]   ext: clicking template scene_seg
[ 813s]   ext: clicked template scene_seg
[ 818s]   ext: installing WS execution listener
[ 818s]   ext: clicking Run
[ 819s]   ext: clicked Run
[ 819s]   ext: waiting for execution_success / execution_error
[ 921s]   ext: WS events=55 elapsed=101s
[ 921s]     ws: {'type': 'executing', 'ts': 1778382168452}
[ 921s]     ws: {'type': 'progress_state', 'ts': 1778382168769}
[ 921s]     ws: {'type': 'progress_state', 'ts': 1778382168792}
[ 921s]     ws: {'type': 'executing', 'ts': 1778382168793}
[ 921s]     ws: {'type': 'progress_state', 'ts': 1778382168824}
[ 921s]     ws: {'type': 'progress_state', 'ts': 1778382168834}
[ 921s]     ws: {'type': 'executing', 'ts': 1778382168836}
[ 921s]     ws: {'type': 'progress_state', 'ts': 1778382169663}
[ 921s]     ws: {'type': 'progress_state', 'ts': 1778382169680}
[ 921s]     ws: {'type': 'executing', 'ts': 1778382169680}
[ 921s]     ws: {'type': 'executed', 'ts': 1778382169897}
[ 921s]     ws: {'type': 'progress_state', 'ts': 1778382169909}
[ 921s]     ws: {'type': 'execution_success', 'ts': 1778382169925}
[ 921s]     ws: {'type': 'status', 'ts': 1778382170202}
[ 921s]     ws: {'type': 'executing', 'ts': 1778382170203}
[ 921s]   ext: execution_success after 101s
[ 926s]   loop: full restart for workflow 4/4 (scene_seg_interactive)
[ 926s]   loop: closing current browser
[ 926s]   loop: killing ComfyUI process
[ 931s]   loop: launching ComfyUI with --remote-debugging-port=0
[ 931s]   loop: waiting for DevToolsActivePort at C:\Users\runneradmin\AppData\Roaming\ComfyUI\DevToolsActivePort
[ 933s]   loop: DevToolsActivePort -> 62007 after 3s
[ 933s]   loop: reconnecting Playwright on port 62007
[ 934s]   loop: attached to file:///C:/Users/runneradmin/.comfy-test-cache/desktop/ComfyUI/resources/desktop-ui/index.html#/desktop-start
[ 934s]   loop: server ready after 1s
[ 976s]   loop: canvas ready after 36s
[ 976s]   loop: forcing renderer reload
[ 978s]   loop: canvas ready after 2s
[ 982s]   ext: closing Nodes Manager dialog
[ 982s]   ext: dismissing What's New popup
[ 982s]   ext: What's New popup not present
[ 982s]   ext: dismissing Node Pack Issues modal (if present)
[ 982s]   ext: Node Pack Issues modal not present
[ 982s]   ext: opening Templates sidebar
[ 982s]   ext: clicked Templates
[ 987s]   ext: locating "comfyui-sam3" section in Templates panel
[ 988s]   ext: clicked comfyui-sam3 section
[ 991s]   ext: clicking template scene_seg_interactive
[ 993s]   ext: clicked template scene_seg_interactive
[ 998s]   ext: installing WS execution listener
[ 998s]   ext: clicking Run
[ 998s]   ext: clicked Run
[ 998s]   ext: waiting for execution_success / execution_error
[1102s]   ext: WS events=23 elapsed=103s
[1102s]     ws: {'type': 'executing', 'ts': 1778382248993}
[1102s]     ws: {'type': 'progress_state', 'ts': 1778382256785}
[1102s]     ws: {'type': 'progress_state', 'ts': 1778382256788}
[1102s]     ws: {'type': 'executing', 'ts': 1778382256788}
[1102s]     ws: {'type': 'progress_state', 'ts': 1778382345083}
[1102s]     ws: {'type': 'progress', 'ts': 1778382345088}
[1102s]     ws: {'type': 'executed', 'ts': 1778382350294}
[1102s]     ws: {'type': 'progress_state', 'ts': 1778382350440}
[1102s]     ws: {'type': 'progress_state', 'ts': 1778382350452}
[1102s]     ws: {'type': 'executing', 'ts': 1778382350453}
[1102s]     ws: {'type': 'executed', 'ts': 1778382351082}
[1102s]     ws: {'type': 'progress_state', 'ts': 1778382351113}
[1102s]     ws: {'type': 'execution_success', 'ts': 1778382351119}
[1102s]     ws: {'type': 'status', 'ts': 1778382351121}
[1102s]     ws: {'type': 'executing', 'ts': 1778382351121}
[1102s]   ext: execution_success after 103s
[1107s] Captured 1251 frames
[1108s] Wrote D:\a\comfy-gpu-ci\comfy-gpu-ci\comfy-test-logs\SAM3-0246\dev\windows-desktop\results.json (4 workflow(s), sha=d0c359e3cec4)
ffmpeg version 7.1-essentials_build-www.gyan.dev Copyright (c) 2000-2024 the FFmpeg developers
  built with gcc 14.2.0 (Rev1, Built by MSYS2 project)
  configuration: --enable-gpl --enable-version3 --enable-static --disable-w32threads --disable-autodetect --enable-fontconfig --enable-iconv --enable-gnutls --enable-libxml2 --enable-gmp --enable-bzlib --enable-lzma --enable-zlib --enable-libsrt --enable-libssh --enable-libzmq --enable-avisynth --enable-sdl2 --enable-libwebp --enable-libx264 --enable-libx265 --enable-libxvid --enable-libaom --enable-libopenjpeg --enable-libvpx --enable-mediafoundation --enable-libass --enable-libfreetype --enable-libfribidi --enable-libharfbuzz --enable-libvidstab --enable-libvmaf --enable-libzimg --enable-amf --enable-cuda-llvm --enable-cuvid --enable-dxva2 --enable-d3d11va --enable-d3d12va --enable-ffnvcodec --enable-libvpl --enable-nvdec --enable-nvenc --enable-vaapi --enable-libgme --enable-libopenmpt --enable-libopencore-amrwb --enable-libmp3lame --enable-libtheora --enable-libvo-amrwbenc --enable-libgsm --enable-libopencore-amrnb --enable-libopus --enable-libspeex --enable-libvorbis --enable-librubberband
  libavutil      59. 39.100 / 59. 39.100
  libavcodec     61. 19.100 / 61. 19.100
  libavformat    61.  7.100 / 61.  7.100
  libavdevice    61.  3.100 / 61.  3.100
  libavfilter    10.  4.100 / 10.  4.100
  libswscale      8.  3.100 /  8.  3.100
  libswresample   5.  3.100 /  5.  3.100
  libpostproc    58.  3.100 / 58.  3.100
Input #0, image2, from 'D:\a\comfy-gpu-ci\comfy-gpu-ci\comfy-test-logs\SAM3-0246\dev\windows-desktop\debug\electron_inspect\frames\frame_%06d.png':
  Duration: 00:04:10.20, start: 0.000000, bitrate: N/A
  Stream #0:0: Video: png, rgb24(pc, gbr/bt709/iec61966-2-1), 1008x681, 5 fps, 5 tbr, 5 tbn
Stream mapping:
  Stream #0:0 -> #0:0 (png (native) -> h264 (libx264))
Press [q] to stop, [?] for help
[libx264 @ 0000016db5895500] using cpu capabilities: MMX2 SSE2Fast SSSE3 SSE4.2 AVX FMA3 BMI2 AVX2
[libx264 @ 0000016db5895500] profile High, level 3.1, 4:2:0, 8-bit
[libx264 @ 0000016db5895500] 264 - core 164 r3192 c24e06c - H.264/MPEG-4 AVC codec - Copyleft 2003-2024 - http://www.videolan.org/x264.html - options: cabac=1 ref=3 deblock=1:0:0 analyse=0x3:0x113 me=hex subme=7 psy=1 psy_rd=1.00:0.00 mixed_ref=1 me_range=16 chroma_me=1 trellis=1 8x8dct=1 cqm=0 deadzone=21,11 fast_pskip=1 chroma_qp_offset=-2 threads=6 lookahead_threads=1 sliced_threads=0 nr=0 decimate=1 interlaced=0 bluray_compat=0 constrained_intra=0 bframes=3 b_pyramid=2 b_adapt=1 b_bias=0 direct=1 weightb=1 open_gop=0 weightp=2 keyint=250 keyint_min=5 scenecut=40 intra_refresh=0 rc_lookahead=40 rc=crf mbtree=1 crf=23.0 qcomp=0.60 qpmin=0 qpmax=69 qpstep=4 ip_ratio=1.40 aq=1:1.00
Output #0, mp4, to 'D:\a\comfy-gpu-ci\comfy-gpu-ci\comfy-test-logs\SAM3-0246\dev\windows-desktop\debug\electron_inspect\driver.mp4':
  Metadata:
    encoder         : Lavf61.7.100
  Stream #0:0: Video: h264 (avc1 / 0x31637661), yuv420p(tv, unknown/bt709/iec61966-2-1, progressive), 1008x682, q=2-31, 5 fps, 10240 tbn
      Metadata:
        encoder         : Lavc61.19.100 libx264
      Side data:
        cpb: bitrate max/min/avg: 0/0/0 buffer size: 0 vbv_delay: N/A
[vf#0:0 @ 0000016db5893780] Reconfiguring filter graph because video parameters changed to rgba(pc, gbr), 1008x681
frame=   10 fps=0.0 q=23.0 size=       0KiB time=00:00:01.60 bitrate=   0.2kbits/s speed= 3.1x    
frame=   51 fps= 49 q=23.0 size=       0KiB time=00:00:09.80 bitrate=   0.0kbits/s speed=9.37x    
[vf#0:0 @ 0000016db5893780] Reconfiguring filter graph because video parameters changed to rgb24(pc, gbr), 1008x681
frame=   98 fps= 62 q=23.0 size=     256KiB time=00:00:19.20 bitrate= 109.2kbits/s speed=12.1x    
frame=  149 fps= 70 q=23.0 size=     512KiB time=00:00:29.40 bitrate= 142.7kbits/s speed=13.8x    
frame=  202 fps= 75 q=23.0 size=     512KiB time=00:00:40.00 bitrate= 104.9kbits/s speed=14.9x    
frame=  264 fps= 82 q=23.0 size=     512KiB time=00:00:52.40 bitrate=  80.1kbits/s speed=16.3x    
[vf#0:0 @ 0000016db5893780] Reconfiguring filter graph because video parameters changed to rgba(pc, gbr), 1008x681
[vf#0:0 @ 0000016db5893780] Reconfiguring filter graph because video parameters changed to rgb24(pc, gbr), 1008x681
frame=  312 fps= 83 q=23.0 size=     768KiB time=00:01:02.00 bitrate= 101.5kbits/s speed=16.6x    
frame=  353 fps= 83 q=23.0 size=    1024KiB time=00:01:10.20 bitrate= 119.5kbits/s speed=16.5x    
frame=  409 fps= 85 q=23.0 size=    1024KiB time=00:01:21.40 bitrate= 103.1kbits/s speed=  17x    
frame=  467 fps= 88 q=23.0 size=    1024KiB time=00:01:33.00 bitrate=  90.2kbits/s speed=17.6x    
[vf#0:0 @ 0000016db5893780] Reconfiguring filter graph because video parameters changed to rgba(pc, gbr), 1008x681
frame=  519 fps= 89 q=23.0 size=    1024KiB time=00:01:43.40 bitrate=  81.1kbits/s speed=17.7x    
[vf#0:0 @ 0000016db5893780] Reconfiguring filter graph because video parameters changed to rgb24(pc, gbr), 1008x681
frame=  560 fps= 87 q=23.0 size=    1280KiB time=00:01:51.60 bitrate=  94.0kbits/s speed=17.4x    
frame=  604 fps= 87 q=23.0 size=    1536KiB time=00:02:00.40 bitrate= 104.5kbits/s speed=17.4x    
frame=  669 fps= 90 q=23.0 size=    1536KiB time=00:02:13.40 bitrate=  94.3kbits/s speed=17.9x    
[vf#0:0 @ 0000016db5893780] Reconfiguring filter graph because video parameters changed to rgba(pc, gbr), 1008x681
frame=  723 fps= 91 q=23.0 size=    1536KiB time=00:02:24.20 bitrate=  87.3kbits/s speed=18.1x    
[vf#0:0 @ 0000016db5893780] Reconfiguring filter graph because video parameters changed to rgb24(pc, gbr), 1008x681
frame=  766 fps= 90 q=23.0 size=    1792KiB time=00:02:32.80 bitrate=  96.1kbits/s speed=  18x    
frame=  800 fps= 89 q=23.0 size=    2048KiB time=00:02:39.60 bitrate= 105.1kbits/s speed=17.7x    
frame=  870 fps= 91 q=23.0 size=    2048KiB time=00:02:53.60 bitrate=  96.6kbits/s speed=18.2x    
frame=  943 fps= 94 q=23.0 size=    2048KiB time=00:03:08.20 bitrate=  89.1kbits/s speed=18.7x    
[vf#0:0 @ 0000016db5893780] Reconfiguring filter graph because video parameters changed to rgba(pc, gbr), 1008x681
frame=  997 fps= 94 q=23.0 size=    2048KiB time=00:03:19.00 bitrate=  84.3kbits/s speed=18.8x    
[vf#0:0 @ 0000016db5893780] Reconfiguring filter graph because video parameters changed to rgb24(pc, gbr), 1008x681
frame= 1041 fps= 94 q=23.0 size=    2304KiB time=00:03:27.80 bitrate=  90.8kbits/s speed=18.7x    
frame= 1082 fps= 93 q=23.0 size=    2560KiB time=00:03:36.00 bitrate=  97.1kbits/s speed=18.6x    
frame= 1140 fps= 93 q=23.0 size=    2560KiB time=00:03:47.60 bitrate=  92.1kbits/s speed=18.7x    
frame= 1204 fps= 95 q=23.0 size=    2560KiB time=00:04:00.40 bitrate=  87.2kbits/s speed=18.9x    
[out#0/mp4 @ 0000016db5b77e00] video:2748KiB audio:0KiB subtitle:0KiB other streams:0KiB global headers:0KiB muxing overhead: 0.556420%
frame= 1251 fps= 97 q=-1.0 Lsize=    2763KiB time=00:04:09.80 bitrate=  90.6kbits/s speed=19.3x    
[libx264 @ 0000016db5895500] frame I:21    Avg QP: 7.41  size: 39003
[libx264 @ 0000016db5895500] frame P:355   Avg QP:15.22  size:  3995
[libx264 @ 0000016db5895500] frame B:875   Avg QP:22.38  size:   658
[libx264 @ 0000016db5895500] consecutive B-frames:  4.6%  5.3%  3.1% 87.0%
[libx264 @ 0000016db5895500] mb I  I16..4: 60.0% 14.9% 25.2%
[libx264 @ 0000016db5895500] mb P  I16..4:  2.1%  2.1%  2.3%  P16..4:  1.7%  0.6%  0.4%  0.0%  0.0%    skip:90.7%
[libx264 @ 0000016db5895500] mb B  I16..4:  0.2%  0.3%  0.1%  B16..8:  3.6%  0.4%  0.1%  direct: 0.2%  skip:95.1%  L0:60.6% L1:36.3% BI: 3.2%
[libx264 @ 0000016db5895500] 8x8 transform intra:26.0% inter:50.2%
[libx264 @ 0000016db5895500] coded y,uvDC,uvAC intra: 35.3% 19.2% 15.7% inter: 0.8% 0.7% 0.2%
[libx264 @ 0000016db5895500] i16 v,h,dc,p: 69% 27%  2%  2%
[libx264 @ 0000016db5895500] i8 v,h,dc,ddl,ddr,vr,hd,vl,hu: 33% 18% 33%  2%  2%  2%  3%  2%  4%
[libx264 @ 0000016db5895500] i4 v,h,dc,ddl,ddr,vr,hd,vl,hu: 35% 32% 14%  2%  3%  3%  4%  3%  4%
[libx264 @ 0000016db5895500] i8c dc,h,v,p: 79% 12%  6%  3%
[libx264 @ 0000016db5895500] Weighted P-Frames: Y:1.4% UV:0.8%
[libx264 @ 0000016db5895500] ref P L0: 67.6%  4.1% 15.6% 12.6%
[libx264 @ 0000016db5895500] ref B L0: 62.3% 35.8%  1.9%
[libx264 @ 0000016db5895500] ref B L1: 97.4%  2.6%
[libx264 @ 0000016db5895500] kb/s:89.94
[1121s] Wrote D:\a\comfy-gpu-ci\comfy-gpu-ci\comfy-test-logs\SAM3-0246\dev\windows-desktop\debug\electron_inspect\driver.mp4
ffmpeg version 7.1-essentials_build-www.gyan.dev Copyright (c) 2000-2024 the FFmpeg developers
  built with gcc 14.2.0 (Rev1, Built by MSYS2 project)
  configuration: --enable-gpl --enable-version3 --enable-static --disable-w32threads --disable-autodetect --enable-fontconfig --enable-iconv --enable-gnutls --enable-libxml2 --enable-gmp --enable-bzlib --enable-lzma --enable-zlib --enable-libsrt --enable-libssh --enable-libzmq --enable-avisynth --enable-sdl2 --enable-libwebp --enable-libx264 --enable-libx265 --enable-libxvid --enable-libaom --enable-libopenjpeg --enable-libvpx --enable-mediafoundation --enable-libass --enable-libfreetype --enable-libfribidi --enable-libharfbuzz --enable-libvidstab --enable-libvmaf --enable-libzimg --enable-amf --enable-cuda-llvm --enable-cuvid --enable-dxva2 --enable-d3d11va --enable-d3d12va --enable-ffnvcodec --enable-libvpl --enable-nvdec --enable-nvenc --enable-vaapi --enable-libgme --enable-libopenmpt --enable-libopencore-amrwb --enable-libmp3lame --enable-libtheora --enable-libvo-amrwbenc --enable-libgsm --enable-libopencore-amrnb --enable-libopus --enable-libspeex --enable-libvorbis --enable-librubberband
  libavutil      59. 39.100 / 59. 39.100
  libavcodec     61. 19.100 / 61. 19.100
  libavformat    61.  7.100 / 61.  7.100
  libavdevice    61.  3.100 / 61.  3.100
  libavfilter    10.  4.100 / 10.  4.100
  libswscale      8.  3.100 /  8.  3.100
  libswresample   5.  3.100 /  5.  3.100
  libpostproc    58.  3.100 / 58.  3.100
Input #0, image2, from 'D:\a\comfy-gpu-ci\comfy-gpu-ci\comfy-test-logs\SAM3-0246\dev\windows-desktop\debug\electron_inspect\frames\frame_%06d.png':
  Duration: 00:02:57.60, start: 0.000000, bitrate: N/A
  Stream #0:0: Video: png, rgb24(pc, gbr/bt709/iec61966-2-1), 1008x681, 5 fps, 5 tbr, 5 tbn
Stream mapping:
  Stream #0:0 -> #0:0 (png (native) -> h264 (libx264))
Press [q] to stop, [?] for help
[libx264 @ 0000023bd98a80c0] using cpu capabilities: MMX2 SSE2Fast SSSE3 SSE4.2 AVX FMA3 BMI2 AVX2
[libx264 @ 0000023bd98a80c0] profile High, level 3.1, 4:2:0, 8-bit
[libx264 @ 0000023bd98a80c0] 264 - core 164 r3192 c24e06c - H.264/MPEG-4 AVC codec - Copyleft 2003-2024 - http://www.videolan.org/x264.html - options: cabac=1 ref=3 deblock=1:0:0 analyse=0x3:0x113 me=hex subme=7 psy=1 psy_rd=1.00:0.00 mixed_ref=1 me_range=16 chroma_me=1 trellis=1 8x8dct=1 cqm=0 deadzone=21,11 fast_pskip=1 chroma_qp_offset=-2 threads=6 lookahead_threads=1 sliced_threads=0 nr=0 decimate=1 interlaced=0 bluray_compat=0 constrained_intra=0 bframes=3 b_pyramid=2 b_adapt=1 b_bias=0 direct=1 weightb=1 open_gop=0 weightp=2 keyint=250 keyint_min=5 scenecut=40 intra_refresh=0 rc_lookahead=40 rc=crf mbtree=1 crf=23.0 qcomp=0.60 qpmin=0 qpmax=69 qpstep=4 ip_ratio=1.40 aq=1:1.00
Output #0, mp4, to 'D:\a\comfy-gpu-ci\comfy-gpu-ci\comfy-test-logs\SAM3-0246\dev\windows-desktop\videos\image_seg_point\driver.mp4':
  Metadata:
    encoder         : Lavf61.7.100
  Stream #0:0: Video: h264 (avc1 / 0x31637661), yuv420p(tv, unknown/bt709/iec61966-2-1, progressive), 1008x682, q=2-31, 5 fps, 10240 tbn
      Metadata:
        encoder         : Lavc61.19.100 libx264
      Side data:
        cpb: bitrate max/min/avg: 0/0/0 buffer size: 0 vbv_delay: N/A
frame=   16 fps=0.0 q=23.0 size=       0KiB time=00:00:02.80 bitrate=   0.1kbits/s speed=5.23x    
frame=   74 fps= 68 q=23.0 size=       0KiB time=00:00:14.40 bitrate=   0.0kbits/s speed=13.3x    
frame=  138 fps= 85 q=23.0 size=       0KiB time=N/A bitrate=N/A speed=N/A    
[out#0/mp4 @ 0000023bd92fb9c0] video:111KiB audio:0KiB subtitle:0KiB other streams:0KiB global headers:0KiB muxing overhead: 2.498484%
frame=  165 fps= 94 q=-1.0 Lsize=     114KiB time=00:00:32.60 bitrate=  28.6kbits/s speed=18.6x    
[libx264 @ 0000023bd98a80c0] frame I:1     Avg QP:10.81  size: 48594
[libx264 @ 0000023bd98a80c0] frame P:41    Avg QP:13.57  size:   889
[libx264 @ 0000023bd98a80c0] frame B:123   Avg QP:22.92  size:   228
[libx264 @ 0000023bd98a80c0] consecutive B-frames:  0.6%  0.0%  0.0% 99.4%
[libx264 @ 0000023bd98a80c0] mb I  I16..4: 44.4% 29.5% 26.0%
[libx264 @ 0000023bd98a80c0] mb P  I16..4:  0.3%  0.0%  0.2%  P16..4:  0.9%  0.1%  0.1%  0.0%  0.0%    skip:98.4%
[libx264 @ 0000023bd98a80c0] mb B  I16..4:  0.0%  0.1%  0.0%  B16..8:  5.8%  0.2%  0.0%  direct: 0.0%  skip:94.0%  L0:57.2% L1:42.3% BI: 0.4%
[libx264 @ 0000023bd98a80c0] 8x8 transform intra:29.0% inter:51.3%
[libx264 @ 0000023bd98a80c0] coded y,uvDC,uvAC intra: 40.8% 17.8% 14.4% inter: 0.1% 0.1% 0.0%
[libx264 @ 0000023bd98a80c0] i16 v,h,dc,p: 53% 47%  0%  0%
[libx264 @ 0000023bd98a80c0] i8 v,h,dc,ddl,ddr,vr,hd,vl,hu: 31% 16% 52%  0%  0%  0%  0%  0%  0%
[libx264 @ 0000023bd98a80c0] i4 v,h,dc,ddl,ddr,vr,hd,vl,hu: 36% 35% 11%  2%  3%  3%  4%  3%  4%
[libx264 @ 0000023bd98a80c0] i8c dc,h,v,p: 71% 22%  7%  1%
[libx264 @ 0000023bd98a80c0] Weighted P-Frames: Y:0.0% UV:0.0%
[libx264 @ 0000023bd98a80c0] ref P L0: 77.2%  0.5% 18.6%  3.8%
[libx264 @ 0000023bd98a80c0] ref B L0: 49.2% 50.2%  0.7%
[libx264 @ 0000023bd98a80c0] ref B L1: 98.1%  1.9%
[libx264 @ 0000023bd98a80c0] kb/s:27.42
[1123s]   videos/image_seg_point/driver.mp4 placed (frames 364..528)
[1123s]   screenshots/image_seg_point_executed.png placed
ffmpeg version 7.1-essentials_build-www.gyan.dev Copyright (c) 2000-2024 the FFmpeg developers
  built with gcc 14.2.0 (Rev1, Built by MSYS2 project)
  configuration: --enable-gpl --enable-version3 --enable-static --disable-w32threads --disable-autodetect --enable-fontconfig --enable-iconv --enable-gnutls --enable-libxml2 --enable-gmp --enable-bzlib --enable-lzma --enable-zlib --enable-libsrt --enable-libssh --enable-libzmq --enable-avisynth --enable-sdl2 --enable-libwebp --enable-libx264 --enable-libx265 --enable-libxvid --enable-libaom --enable-libopenjpeg --enable-libvpx --enable-mediafoundation --enable-libass --enable-libfreetype --enable-libfribidi --enable-libharfbuzz --enable-libvidstab --enable-libvmaf --enable-libzimg --enable-amf --enable-cuda-llvm --enable-cuvid --enable-dxva2 --enable-d3d11va --enable-d3d12va --enable-ffnvcodec --enable-libvpl --enable-nvdec --enable-nvenc --enable-vaapi --enable-libgme --enable-libopenmpt --enable-libopencore-amrwb --enable-libmp3lame --enable-libtheora --enable-libvo-amrwbenc --enable-libgsm --enable-libopencore-amrnb --enable-libopus --enable-libspeex --enable-libvorbis --enable-librubberband
  libavutil      59. 39.100 / 59. 39.100
  libavcodec     61. 19.100 / 61. 19.100
  libavformat    61.  7.100 / 61.  7.100
  libavdevice    61.  3.100 / 61.  3.100
  libavfilter    10.  4.100 / 10.  4.100
  libswscale      8.  3.100 /  8.  3.100
  libswresample   5.  3.100 /  5.  3.100
  libpostproc    58.  3.100 / 58.  3.100
Input #0, image2, from 'D:\a\comfy-gpu-ci\comfy-gpu-ci\comfy-test-logs\SAM3-0246\dev\windows-desktop\debug\electron_inspect\frames\frame_%06d.png':
  Duration: 00:02:14.40, start: 0.000000, bitrate: N/A
  Stream #0:0: Video: png, rgba(pc, gbr/bt709/iec61966-2-1), 1008x681, 5 fps, 5 tbr, 5 tbn
Stream mapping:
  Stream #0:0 -> #0:0 (png (native) -> h264 (libx264))
Press [q] to stop, [?] for help
[libx264 @ 000001f8bf7b4240] using cpu capabilities: MMX2 SSE2Fast SSSE3 SSE4.2 AVX FMA3 BMI2 AVX2
[libx264 @ 000001f8bf7b4240] profile High, level 3.1, 4:2:0, 8-bit
[libx264 @ 000001f8bf7b4240] 264 - core 164 r3192 c24e06c - H.264/MPEG-4 AVC codec - Copyleft 2003-2024 - http://www.videolan.org/x264.html - options: cabac=1 ref=3 deblock=1:0:0 analyse=0x3:0x113 me=hex subme=7 psy=1 psy_rd=1.00:0.00 mixed_ref=1 me_range=16 chroma_me=1 trellis=1 8x8dct=1 cqm=0 deadzone=21,11 fast_pskip=1 chroma_qp_offset=-2 threads=6 lookahead_threads=1 sliced_threads=0 nr=0 decimate=1 interlaced=0 bluray_compat=0 constrained_intra=0 bframes=3 b_pyramid=2 b_adapt=1 b_bias=0 direct=1 weightb=1 open_gop=0 weightp=2 keyint=250 keyint_min=5 scenecut=40 intra_refresh=0 rc_lookahead=40 rc=crf mbtree=1 crf=23.0 qcomp=0.60 qpmin=0 qpmax=69 qpstep=4 ip_ratio=1.40 aq=1:1.00
Output #0, mp4, to 'D:\a\comfy-gpu-ci\comfy-gpu-ci\comfy-test-logs\SAM3-0246\dev\windows-desktop\videos\image_seg_text\driver.mp4':
  Metadata:
    encoder         : Lavf61.7.100
  Stream #0:0: Video: h264 (avc1 / 0x31637661), yuv420p(tv, unknown/bt709/iec61966-2-1, progressive), 1008x682, q=2-31, 5 fps, 10240 tbn
      Metadata:
        encoder         : Lavc61.19.100 libx264
      Side data:
        cpb: bitrate max/min/avg: 0/0/0 buffer size: 0 vbv_delay: N/A
[vf#0:0 @ 000001f8bf7b4d40] Reconfiguring filter graph because video parameters changed to rgb24(pc, gbr), 1008x681
frame=   12 fps=0.0 q=23.0 size=       0KiB time=00:00:02.00 bitrate=   0.2kbits/s speed=3.96x    
frame=   70 fps= 68 q=23.0 size=       0KiB time=00:00:13.60 bitrate=   0.0kbits/s speed=13.2x    
frame=  152 fps= 98 q=23.0 size=       0KiB time=N/A bitrate=N/A speed=N/A    
[out#0/mp4 @ 000001f8bf7b5540] video:131KiB audio:0KiB subtitle:0KiB other streams:0KiB global headers:0KiB muxing overhead: 2.156955%
frame=  170 fps=106 q=-1.0 Lsize=     134KiB time=00:00:33.60 bitrate=  32.6kbits/s speed=20.9x    
[libx264 @ 000001f8bf7b4240] frame I:2     Avg QP:11.23  size: 45490
[libx264 @ 000001f8bf7b4240] frame P:43    Avg QP:14.44  size:   791
[libx264 @ 000001f8bf7b4240] frame B:125   Avg QP:23.76  size:    68
[libx264 @ 000001f8bf7b4240] consecutive B-frames:  1.8%  0.0%  1.8% 96.5%
[libx264 @ 000001f8bf7b4240] mb I  I16..4: 50.1% 20.2% 29.7%
[libx264 @ 000001f8bf7b4240] mb P  I16..4:  0.3%  0.1%  0.3%  P16..4:  0.7%  0.1%  0.1%  0.0%  0.0%    skip:98.5%
[libx264 @ 000001f8bf7b4240] mb B  I16..4:  0.0%  0.0%  0.0%  B16..8:  0.7%  0.0%  0.0%  direct: 0.0%  skip:99.2%  L0:46.2% L1:53.5% BI: 0.3%
[libx264 @ 000001f8bf7b4240] 8x8 transform intra:20.5% inter:71.8%
[libx264 @ 000001f8bf7b4240] coded y,uvDC,uvAC intra: 42.4% 21.6% 18.0% inter: 0.1% 0.1% 0.0%
[libx264 @ 000001f8bf7b4240] i16 v,h,dc,p: 53% 41%  0%  6%
[libx264 @ 000001f8bf7b4240] i8 v,h,dc,ddl,ddr,vr,hd,vl,hu: 41% 18% 35%  0%  2%  1%  1%  0%  1%
[libx264 @ 000001f8bf7b4240] i4 v,h,dc,ddl,ddr,vr,hd,vl,hu: 40% 34% 11%  2%  3%  2%  3%  2%  3%
[libx264 @ 000001f8bf7b4240] i8c dc,h,v,p: 69% 17%  9%  5%
[libx264 @ 000001f8bf7b4240] Weighted P-Frames: Y:0.0% UV:0.0%
[libx264 @ 000001f8bf7b4240] ref P L0: 84.3%  1.5% 10.1%  4.2%
[libx264 @ 000001f8bf7b4240] ref B L0: 67.6% 30.1%  2.4%
[libx264 @ 000001f8bf7b4240] ref B L1: 93.9%  6.1%
[libx264 @ 000001f8bf7b4240] kb/s:31.42
[1125s]   videos/image_seg_text/driver.mp4 placed (frames 580..749)
[1125s]   screenshots/image_seg_text_executed.png placed
ffmpeg version 7.1-essentials_build-www.gyan.dev Copyright (c) 2000-2024 the FFmpeg developers
  built with gcc 14.2.0 (Rev1, Built by MSYS2 project)
  configuration: --enable-gpl --enable-version3 --enable-static --disable-w32threads --disable-autodetect --enable-fontconfig --enable-iconv --enable-gnutls --enable-libxml2 --enable-gmp --enable-bzlib --enable-lzma --enable-zlib --enable-libsrt --enable-libssh --enable-libzmq --enable-avisynth --enable-sdl2 --enable-libwebp --enable-libx264 --enable-libx265 --enable-libxvid --enable-libaom --enable-libopenjpeg --enable-libvpx --enable-mediafoundation --enable-libass --enable-libfreetype --enable-libfribidi --enable-libharfbuzz --enable-libvidstab --enable-libvmaf --enable-libzimg --enable-amf --enable-cuda-llvm --enable-cuvid --enable-dxva2 --enable-d3d11va --enable-d3d12va --enable-ffnvcodec --enable-libvpl --enable-nvdec --enable-nvenc --enable-vaapi --enable-libgme --enable-libopenmpt --enable-libopencore-amrwb --enable-libmp3lame --enable-libtheora --enable-libvo-amrwbenc --enable-libgsm --enable-libopencore-amrnb --enable-libopus --enable-libspeex --enable-libvorbis --enable-librubberband
  libavutil      59. 39.100 / 59. 39.100
  libavcodec     61. 19.100 / 61. 19.100
  libavformat    61.  7.100 / 61.  7.100
  libavdevice    61.  3.100 / 61.  3.100
  libavfilter    10.  4.100 / 10.  4.100
  libswscale      8.  3.100 /  8.  3.100
  libswresample   5.  3.100 /  5.  3.100
  libpostproc    58.  3.100 / 58.  3.100
Input #0, image2, from 'D:\a\comfy-gpu-ci\comfy-gpu-ci\comfy-test-logs\SAM3-0246\dev\windows-desktop\debug\electron_inspect\frames\frame_%06d.png':
  Duration: 00:01:30.20, start: 0.000000, bitrate: N/A
  Stream #0:0: Video: png, rgb24(pc, gbr/bt709/iec61966-2-1), 1008x681, 5 fps, 5 tbr, 5 tbn
Stream mapping:
  Stream #0:0 -> #0:0 (png (native) -> h264 (libx264))
Press [q] to stop, [?] for help
[libx264 @ 00000216289ba600] using cpu capabilities: MMX2 SSE2Fast SSSE3 SSE4.2 AVX FMA3 BMI2 AVX2
[libx264 @ 00000216289ba600] profile High, level 3.1, 4:2:0, 8-bit
[libx264 @ 00000216289ba600] 264 - core 164 r3192 c24e06c - H.264/MPEG-4 AVC codec - Copyleft 2003-2024 - http://www.videolan.org/x264.html - options: cabac=1 ref=3 deblock=1:0:0 analyse=0x3:0x113 me=hex subme=7 psy=1 psy_rd=1.00:0.00 mixed_ref=1 me_range=16 chroma_me=1 trellis=1 8x8dct=1 cqm=0 deadzone=21,11 fast_pskip=1 chroma_qp_offset=-2 threads=6 lookahead_threads=1 sliced_threads=0 nr=0 decimate=1 interlaced=0 bluray_compat=0 constrained_intra=0 bframes=3 b_pyramid=2 b_adapt=1 b_bias=0 direct=1 weightb=1 open_gop=0 weightp=2 keyint=250 keyint_min=5 scenecut=40 intra_refresh=0 rc_lookahead=40 rc=crf mbtree=1 crf=23.0 qcomp=0.60 qpmin=0 qpmax=69 qpstep=4 ip_ratio=1.40 aq=1:1.00
Output #0, mp4, to 'D:\a\comfy-gpu-ci\comfy-gpu-ci\comfy-test-logs\SAM3-0246\dev\windows-desktop\videos\scene_seg\driver.mp4':
  Metadata:
    encoder         : Lavf61.7.100
  Stream #0:0: Video: h264 (avc1 / 0x31637661), yuv420p(tv, unknown/bt709/iec61966-2-1, progressive), 1008x682, q=2-31, 5 fps, 10240 tbn
      Metadata:
        encoder         : Lavc61.19.100 libx264
      Side data:
        cpb: bitrate max/min/avg: 0/0/0 buffer size: 0 vbv_delay: N/A
frame=   17 fps=0.0 q=23.0 size=       0KiB time=00:00:03.00 bitrate=   0.1kbits/s speed=5.88x    
frame=   85 fps= 83 q=23.0 size=       0KiB time=00:00:16.60 bitrate=   0.0kbits/s speed=16.2x    
frame=  178 fps=115 q=23.0 size=       0KiB time=N/A bitrate=N/A speed=N/A    
[out#0/mp4 @ 000002162841b9c0] video:135KiB audio:0KiB subtitle:0KiB other streams:0KiB global headers:0KiB muxing overhead: 2.332533%
frame=  196 fps=123 q=-1.0 Lsize=     138KiB time=00:00:38.80 bitrate=  29.1kbits/s speed=24.4x    
[libx264 @ 00000216289ba600] frame I:2     Avg QP:12.81  size: 34134
[libx264 @ 00000216289ba600] frame P:49    Avg QP:13.72  size:  1187
[libx264 @ 00000216289ba600] frame B:145   Avg QP:23.58  size:    74
[libx264 @ 00000216289ba600] consecutive B-frames:  1.0%  1.0%  0.0% 98.0%
[libx264 @ 00000216289ba600] mb I  I16..4: 45.3% 31.8% 22.9%
[libx264 @ 00000216289ba600] mb P  I16..4:  0.5%  0.1%  0.4%  P16..4:  0.8%  0.1%  0.1%  0.0%  0.0%    skip:98.0%
[libx264 @ 00000216289ba600] mb B  I16..4:  0.0%  0.0%  0.0%  B16..8:  0.7%  0.0%  0.0%  direct: 0.0%  skip:99.2%  L0:57.9% L1:41.4% BI: 0.7%
[libx264 @ 00000216289ba600] 8x8 transform intra:29.2% inter:56.5%
[libx264 @ 00000216289ba600] coded y,uvDC,uvAC intra: 18.5% 22.2% 17.7% inter: 0.1% 0.1% 0.0%
[libx264 @ 00000216289ba600] i16 v,h,dc,p: 55% 39%  0%  6%
[libx264 @ 00000216289ba600] i8 v,h,dc,ddl,ddr,vr,hd,vl,hu: 60% 10% 26%  0%  2%  1%  1%  0%  1%
[libx264 @ 00000216289ba600] i4 v,h,dc,ddl,ddr,vr,hd,vl,hu: 32% 36% 15%  2%  3%  3%  4%  2%  4%
[libx264 @ 00000216289ba600] i8c dc,h,v,p: 68% 17% 10%  5%
[libx264 @ 00000216289ba600] Weighted P-Frames: Y:0.0% UV:0.0%
[libx264 @ 00000216289ba600] ref P L0: 81.0%  2.8% 14.2%  1.9%
[libx264 @ 00000216289ba600] ref B L0: 71.8% 26.0%  2.2%
[libx264 @ 00000216289ba600] ref B L1: 94.9%  5.1%
[libx264 @ 00000216289ba600] kb/s:27.99
[1126s]   videos/scene_seg/driver.mp4 placed (frames 801..996)
[1126s]   screenshots/scene_seg_executed.png placed
ffmpeg version 7.1-essentials_build-www.gyan.dev Copyright (c) 2000-2024 the FFmpeg developers
  built with gcc 14.2.0 (Rev1, Built by MSYS2 project)
  configuration: --enable-gpl --enable-version3 --enable-static --disable-w32threads --disable-autodetect --enable-fontconfig --enable-iconv --enable-gnutls --enable-libxml2 --enable-gmp --enable-bzlib --enable-lzma --enable-zlib --enable-libsrt --enable-libssh --enable-libzmq --enable-avisynth --enable-sdl2 --enable-libwebp --enable-libx264 --enable-libx265 --enable-libxvid --enable-libaom --enable-libopenjpeg --enable-libvpx --enable-mediafoundation --enable-libass --enable-libfreetype --enable-libfribidi --enable-libharfbuzz --enable-libvidstab --enable-libvmaf --enable-libzimg --enable-amf --enable-cuda-llvm --enable-cuvid --enable-dxva2 --enable-d3d11va --enable-d3d12va --enable-ffnvcodec --enable-libvpl --enable-nvdec --enable-nvenc --enable-vaapi --enable-libgme --enable-libopenmpt --enable-libopencore-amrwb --enable-libmp3lame --enable-libtheora --enable-libvo-amrwbenc --enable-libgsm --enable-libopencore-amrnb --enable-libopus --enable-libspeex --enable-libvorbis --enable-librubberband
  libavutil      59. 39.100 / 59. 39.100
  libavcodec     61. 19.100 / 61. 19.100
  libavformat    61.  7.100 / 61.  7.100
  libavdevice    61.  3.100 / 61.  3.100
  libavfilter    10.  4.100 / 10.  4.100
  libswscale      8.  3.100 /  8.  3.100
  libswresample   5.  3.100 /  5.  3.100
  libpostproc    58.  3.100 / 58.  3.100
Input #0, image2, from 'D:\a\comfy-gpu-ci\comfy-gpu-ci\comfy-test-logs\SAM3-0246\dev\windows-desktop\debug\electron_inspect\frames\frame_%06d.png':
  Duration: 00:00:38.40, start: 0.000000, bitrate: N/A
  Stream #0:0: Video: png, rgb24(pc, gbr/bt709/iec61966-2-1), 1008x681, 5 fps, 5 tbr, 5 tbn
Stream mapping:
  Stream #0:0 -> #0:0 (png (native) -> h264 (libx264))
Press [q] to stop, [?] for help
[libx264 @ 000001fa788b4a80] using cpu capabilities: MMX2 SSE2Fast SSSE3 SSE4.2 AVX FMA3 BMI2 AVX2
[libx264 @ 000001fa788b4a80] profile High, level 3.1, 4:2:0, 8-bit
[libx264 @ 000001fa788b4a80] 264 - core 164 r3192 c24e06c - H.264/MPEG-4 AVC codec - Copyleft 2003-2024 - http://www.videolan.org/x264.html - options: cabac=1 ref=3 deblock=1:0:0 analyse=0x3:0x113 me=hex subme=7 psy=1 psy_rd=1.00:0.00 mixed_ref=1 me_range=16 chroma_me=1 trellis=1 8x8dct=1 cqm=0 deadzone=21,11 fast_pskip=1 chroma_qp_offset=-2 threads=6 lookahead_threads=1 sliced_threads=0 nr=0 decimate=1 interlaced=0 bluray_compat=0 constrained_intra=0 bframes=3 b_pyramid=2 b_adapt=1 b_bias=0 direct=1 weightb=1 open_gop=0 weightp=2 keyint=250 keyint_min=5 scenecut=40 intra_refresh=0 rc_lookahead=40 rc=crf mbtree=1 crf=23.0 qcomp=0.60 qpmin=0 qpmax=69 qpstep=4 ip_ratio=1.40 aq=1:1.00
Output #0, mp4, to 'D:\a\comfy-gpu-ci\comfy-gpu-ci\comfy-test-logs\SAM3-0246\dev\windows-desktop\videos\scene_seg_interactive\driver.mp4':
  Metadata:
    encoder         : Lavf61.7.100
  Stream #0:0: Video: h264 (avc1 / 0x31637661), yuv420p(tv, unknown/bt709/iec61966-2-1, progressive), 1008x682, q=2-31, 5 fps, 10240 tbn
      Metadata:
        encoder         : Lavc61.19.100 libx264
      Side data:
        cpb: bitrate max/min/avg: 0/0/0 buffer size: 0 vbv_delay: N/A
frame=   15 fps=0.0 q=23.0 size=       0KiB time=00:00:02.60 bitrate=   0.1kbits/s speed=5.14x    
frame=   76 fps= 74 q=23.0 size=       0KiB time=00:00:14.80 bitrate=   0.0kbits/s speed=14.4x    
frame=  131 fps= 85 q=23.0 size=       0KiB time=00:00:25.80 bitrate=   0.0kbits/s speed=16.8x    
[out#0/mp4 @ 000001fa788bb9c0] video:142KiB audio:0KiB subtitle:0KiB other streams:0KiB global headers:0KiB muxing overhead: 2.184078%
frame=  192 fps=104 q=-1.0 Lsize=     145KiB time=00:00:38.00 bitrate=  31.2kbits/s speed=20.5x    
[libx264 @ 000001fa788b4a80] frame I:2     Avg QP:12.89  size: 34558
[libx264 @ 000001fa788b4a80] frame P:48    Avg QP:13.12  size:  1078
[libx264 @ 000001fa788b4a80] frame B:142   Avg QP:20.38  size:   165
[libx264 @ 000001fa788b4a80] consecutive B-frames:  1.0%  1.0%  0.0% 97.9%
[libx264 @ 000001fa788b4a80] mb I  I16..4: 46.1% 30.2% 23.7%
[libx264 @ 000001fa788b4a80] mb P  I16..4:  0.5%  0.1%  0.4%  P16..4:  0.9%  0.1%  0.1%  0.0%  0.0%    skip:98.0%
[libx264 @ 000001fa788b4a80] mb B  I16..4:  0.0%  0.0%  0.0%  B16..8:  6.0%  0.1%  0.0%  direct: 0.0%  skip:93.9%  L0:72.5% L1:27.4% BI: 0.0%
[libx264 @ 000001fa788b4a80] 8x8 transform intra:26.3% inter:72.8%
[libx264 @ 000001fa788b4a80] coded y,uvDC,uvAC intra: 28.2% 21.6% 17.1% inter: 0.1% 0.2% 0.0%
[libx264 @ 000001fa788b4a80] i16 v,h,dc,p: 49% 44%  1%  6%
[libx264 @ 000001fa788b4a80] i8 v,h,dc,ddl,ddr,vr,hd,vl,hu: 49% 17% 29%  0%  2%  1%  1%  0%  1%
[libx264 @ 000001fa788b4a80] i4 v,h,dc,ddl,ddr,vr,hd,vl,hu: 35% 36% 12%  2%  3%  3%  3%  2%  3%
[libx264 @ 000001fa788b4a80] i8c dc,h,v,p: 69% 16% 10%  5%
[libx264 @ 000001fa788b4a80] Weighted P-Frames: Y:0.0% UV:0.0%
[libx264 @ 000001fa788b4a80] ref P L0: 81.9%  1.8% 14.2%  2.1%
[libx264 @ 000001fa788b4a80] ref B L0: 31.7% 67.9%  0.4%
[libx264 @ 000001fa788b4a80] ref B L1: 99.0%  1.0%
[libx264 @ 000001fa788b4a80] kb/s:30.07
[1128s]   videos/scene_seg_interactive/driver.mp4 placed (frames 1060..1251)
[1128s]   screenshots/scene_seg_interactive_executed.png placed
[1128s]   removed D:\a\comfy-gpu-ci\comfy-gpu-ci\comfy-test-logs\SAM3-0246\dev\windows-desktop\debug\electron_inspect\frames after successful encode
